<svg  height="512" viewBox="0 0 448 512" width="448" xmlns="http://www.w3.org/2000/svg"><path d="m48 32c-26.5 0-48 21.5-48 48v352c0 26.5 21.5 48 48 48h352c26.5 0 48-21.5 48-48v-352c0-26.5-21.5-48-48-48zm133.64062 64h56.4375a65.328742 65.322487 0 0 1 27.97071 13.72266 70.318365 70.311637 0 0 1 20.59179 28.18554 98.091383 98.081991 0 0 1 7.20899 38.03907c0 24.93607-8.24894 44.90185-24.75195 59.89648a56.931208 56.92576 0 0 1 -24.13477 13.51953v.00195c-9.01412 2.44381-21.86958 3.6611-38.56836 3.65039h-24.75391zm-117.64062.015625h32.490234a46.111872 46.107463 0 0 1 4.779296 1.980469 41.375662 41.371699 0 0 1 16.67774 15.035156h.00195a51.757447 51.752493 0 0 1 6.41797 19.07422 224.30123 224.27977 0 0 1 1.90234 33.49219v186.25c0 17.35751-.92691 30.15962-2.7832 38.41015a40.906577 40.902666 0 0 1 -10.83008 20.4668 44.375926 44.37168 0 0 1 -6.11133 5.27539h-42.54492zm237.91211 0h82.08789v319.984375h-182.55664a44.400899 44.396651 0 0 1 -6.11133-5.27539 42.773425 42.769331 0 0 1 -10.73633-20.58984c-1.93868-8.34274-2.9082-21.10574-2.9082-38.28711v-90.72852h49.50781c21.89681 0 35.71132-.25054 41.44531-.75586 18.02859-1.51593 33.36168-5.98193 45.9961-13.39648 24.26901-14.31464 36.4043-36.88845 36.4043-67.72461 0-30.33083-11.96567-54.59315-35.89454-72.78516a87.061666 87.053333 0 0 0 -17.23437-10.441405z" fill="red" /></svg>
